<?xml version="1.0" encoding="UTF-8"?>
<svg xmlns="http://www.w3.org/2000/svg" xmlns:xlink="http://www.w3.org/1999/xlink" width="24px" height="24px" viewBox="0 0 24 24" version="1.1">
<g id="surface1">
<path style=" stroke:none;fill-rule:nonzero;fill:rgb(0%,0%,0%);fill-opacity:1;" d="M 8.550781 1.71875 C 7.546875 2.070312 6.757812 2.808594 6.257812 3.84375 C 5.957031 4.472656 5.925781 4.632812 5.925781 5.550781 C 5.925781 6.492188 5.957031 6.628906 6.277344 7.28125 C 6.714844 8.167969 7.546875 8.96875 8.414062 9.300781 C 8.871094 9.492188 9.234375 9.542969 9.929688 9.542969 C 11.09375 9.542969 11.839844 9.265625 12.652344 8.53125 C 15.394531 6.019531 13.613281 1.460938 9.90625 1.503906 C 9.425781 1.503906 8.902344 1.589844 8.550781 1.71875 Z M 10.6875 3.214844 C 12.105469 3.640625 12.789062 5.457031 12.03125 6.757812 C 11.679688 7.34375 11.15625 7.730469 10.441406 7.910156 C 9.460938 8.144531 8.347656 7.65625 7.816406 6.738281 C 7.28125 5.839844 7.484375 4.472656 8.242188 3.769531 C 8.859375 3.191406 9.84375 2.96875 10.6875 3.214844 Z M 10.6875 3.214844 "/>
<path style=" stroke:none;fill-rule:nonzero;fill:rgb(0%,0%,0%);fill-opacity:1;" d="M 6.941406 11.359375 C 5.753906 11.691406 4.621094 12.554688 4.023438 13.578125 C 3.46875 14.53125 3.417969 15.011719 3.417969 18.683594 L 3.417969 22.066406 L 3.660156 22.292969 C 4.015625 22.621094 4.515625 22.601562 4.792969 22.25 C 5.007812 21.972656 5.019531 21.84375 5.019531 18.738281 C 5.019531 16.175781 5.050781 15.40625 5.179688 14.980469 C 5.390625 14.253906 6.117188 13.453125 6.855469 13.121094 C 7.398438 12.875 7.515625 12.863281 9.875 12.863281 C 12.03125 12.863281 12.394531 12.886719 12.855469 13.066406 C 13.570312 13.34375 14.179688 13.921875 14.53125 14.660156 C 14.925781 15.492188 15.117188 15.695312 15.542969 15.695312 C 16.015625 15.695312 16.378906 15.246094 16.300781 14.765625 C 16.132812 13.738281 14.980469 12.265625 13.941406 11.753906 C 12.960938 11.273438 12.492188 11.210938 9.875 11.21875 C 8.253906 11.230469 7.261719 11.273438 6.941406 11.359375 Z M 6.941406 11.359375 "/>
<path style=" stroke:none;fill-rule:nonzero;fill:rgb(0%,0%,0%);fill-opacity:1;" d="M 10.378906 16.589844 C 8.753906 18.191406 8.753906 18.085938 10.367188 19.707031 C 11.421875 20.765625 11.625 20.925781 11.925781 20.925781 C 12.382812 20.925781 12.703125 20.605469 12.703125 20.15625 C 12.703125 19.898438 12.597656 19.707031 12.308594 19.410156 L 11.914062 19.003906 L 20.082031 19.003906 L 20.339844 18.738281 C 20.617188 18.46875 20.679688 18.0625 20.5 17.722656 C 20.296875 17.339844 19.835938 17.296875 15.832031 17.296875 L 11.945312 17.296875 L 12.332031 16.921875 C 12.621094 16.632812 12.703125 16.453125 12.703125 16.175781 C 12.703125 15.703125 12.394531 15.375 11.9375 15.375 C 11.648438 15.375 11.421875 15.554688 10.378906 16.589844 Z M 10.378906 16.589844 "/>
<path style=" stroke:none;fill-rule:nonzero;fill:rgb(0%,0%,0%);fill-opacity:1;" d="M 15.105469 20.660156 C 14.894531 20.859375 14.839844 21.019531 14.839844 21.4375 C 14.839844 22.132812 15.128906 22.527344 15.652344 22.527344 C 16.21875 22.527344 16.441406 22.226562 16.441406 21.46875 C 16.441406 20.914062 16.410156 20.808594 16.164062 20.617188 C 15.789062 20.316406 15.425781 20.339844 15.105469 20.660156 Z M 15.105469 20.660156 "/>
</g>
</svg>
