<?xml version="1.0" standalone="no"?>
<!DOCTYPE svg PUBLIC "-//W3C//DTD SVG 20010904//EN"
 "http://www.w3.org/TR/2001/REC-SVG-20010904/DTD/svg10.dtd">
<svg version="1.0" xmlns="http://www.w3.org/2000/svg"
 width="20.000000pt" height="20.000000pt" viewBox="0 0 20.000000 20.000000"
 preserveAspectRatio="xMidYMid meet">

<g transform="translate(0.000000,20.000000) scale(0.100000,-0.100000)"
fill="#000000" stroke="none">
<path d="M70 181 c0 -5 -10 -12 -22 -14 -13 -2 11 -4 52 -4 41 0 65 2 53 4
-13 2 -23 9 -23 14 0 5 -13 9 -30 9 -16 0 -30 -4 -30 -9z"/>
<path d="M46 88 c8 -77 9 -78 54 -78 45 0 46 1 54 78 l5 52 -59 0 -59 0 5 -52z
m33 -31 c1 -16 -3 -26 -9 -22 -5 3 -10 27 -9 53 1 38 2 42 9 22 4 -14 8 -38 9
-53z m31 23 c0 -27 -4 -50 -10 -50 -5 0 -10 23 -10 50 0 28 5 50 10 50 6 0 10
-22 10 -50z m21 -43 c-13 -13 -15 14 -3 64 l7 34 3 -44 c2 -24 -2 -49 -7 -54z"/>
</g>
</svg>
