<?xml version="1.0" standalone="no"?>
<!DOCTYPE svg PUBLIC "-//W3C//DTD SVG 20010904//EN"
 "http://www.w3.org/TR/2001/REC-SVG-20010904/DTD/svg10.dtd">
<svg version="1.0" xmlns="http://www.w3.org/2000/svg"
 width="20.000000pt" height="20.000000pt" viewBox="0 0 20.000000 20.000000"
 preserveAspectRatio="xMidYMid meet">

<g transform="translate(0.000000,20.000000) scale(0.100000,-0.100000)"
fill="#000000" stroke="none">
<path d="M112 137 c-29 -29 -52 -58 -52 -65 0 -25 27 -10 78 41 43 44 50 56
39 65 -10 9 -24 0 -65 -41z m38 5 c0 -14 -49 -56 -57 -49 -3 4 4 18 17 32 24
25 40 32 40 17z"/>
<path d="M10 85 l0 -75 75 0 75 0 -2 43 -1 42 -4 -38 -4 -38 -62 3 -62 3 -3
62 -3 62 38 4 38 4 -42 1 -43 2 0 -75z"/>
</g>
</svg>
