<?xml version="1.0" standalone="no"?>
<!DOCTYPE svg PUBLIC "-//W3C//DTD SVG 20010904//EN"
 "http://www.w3.org/TR/2001/REC-SVG-20010904/DTD/svg10.dtd">
<svg version="1.0" xmlns="http://www.w3.org/2000/svg"
 width="128.000000pt" height="128.000000pt" viewBox="0 0 128.000000 128.000000"
 preserveAspectRatio="xMidYMid meet">

<g transform="translate(0.000000,128.000000) scale(0.100000,-0.100000)"
fill="#000000" stroke="none">
<path d="M91 1226 c-49 -27 -50 -35 -51 -433 0 -405 4 -442 48 -414 11 6 11
16 2 47 -8 27 -10 147 -8 386 3 318 5 349 21 365 16 17 53 18 505 21 l487 3
-60 -61 -59 -60 -418 0 c-411 0 -418 0 -418 -20 0 -20 7 -20 397 -20 l398 0
-80 -80 -80 -80 -19 25 c-57 79 -196 71 -241 -14 -32 -62 -13 -149 40 -188
l26 -18 -31 -30 -30 -29 0 45 c0 157 -223 231 -311 103 -27 -39 -29 -50 -29
-131 0 -75 4 -94 25 -132 29 -51 32 -92 7 -113 -9 -9 -43 -28 -74 -42 -92 -43
-99 -58 -96 -195 l3 -116 288 -3 c182 -1 303 2 328 8 23 7 57 28 80 51 35 35
44 39 91 39 34 0 58 6 70 17 17 15 19 15 36 0 10 -10 29 -17 42 -17 13 0 32 7
42 17 17 15 19 15 36 0 33 -30 69 -21 98 23 l27 40 -27 40 -26 40 -178 0 -178
0 -22 30 -23 30 36 0 c19 0 35 -4 35 -10 0 -15 352 -13 385 2 54 24 55 36 55
438 0 402 -1 414 -55 438 -40 18 -1061 16 -1094 -2z m619 -341 c35 -36 34 -95
-3 -132 -60 -61 -162 -19 -162 66 0 89 101 130 165 66z m360 0 c35 -36 34 -95
-3 -132 -60 -61 -162 -19 -162 66 0 89 101 130 165 66z m-655 -122 c52 -53 57
-172 9 -242 -39 -58 -29 -136 24 -176 19 -15 -107 -134 -183 -173 -53 -26
-154 -62 -177 -62 -11 0 -10 123 1 153 7 17 31 33 86 57 55 24 80 41 91 61 22
43 18 99 -10 140 -28 41 -41 110 -31 168 16 96 125 138 190 74z m251 -422 c23
-10 51 -33 63 -50 l22 -31 179 0 c169 0 180 -1 190 -20 8 -14 8 -26 0 -40 -13
-25 -22 -25 -45 0 -23 26 -43 25 -72 -2 l-23 -21 -23 21 c-29 27 -49 28 -72 2
-14 -16 -31 -20 -79 -20 -57 -1 -62 -3 -81 -33 -26 -41 -99 -72 -148 -63 -133
25 -155 208 -33 262 42 18 74 17 122 -5z"/>
<path d="M650 845 c-17 -18 -30 -23 -46 -19 -17 4 -26 1 -30 -10 -8 -20 22
-56 46 -56 24 0 94 75 87 94 -9 23 -30 20 -57 -9z"/>
<path d="M1010 845 c-17 -18 -30 -23 -46 -19 -17 4 -26 1 -30 -10 -8 -20 22
-56 46 -56 24 0 94 75 87 94 -9 23 -30 20 -57 -9z"/>
<path d="M517 262 c-22 -24 -21 -65 1 -85 40 -36 102 -9 102 45 0 51 -69 78
-103 40z"/>
<path d="M140 1140 c0 -13 7 -20 20 -20 13 0 20 7 20 20 0 13 -7 20 -20 20
-13 0 -20 -7 -20 -20z"/>
<path d="M220 1140 c0 -13 7 -20 20 -20 13 0 20 7 20 20 0 13 -7 20 -20 20
-13 0 -20 -7 -20 -20z"/>
<path d="M300 1140 c0 -13 7 -20 20 -20 13 0 20 7 20 20 0 13 -7 20 -20 20
-13 0 -20 -7 -20 -20z"/>
<path d="M203 940 c-18 -10 -39 -33 -48 -49 -15 -31 -21 -101 -7 -101 17 1 30
17 36 46 16 73 107 105 159 56 20 -19 26 -20 42 -8 17 12 17 16 5 31 -39 47
-131 60 -187 25z"/>
</g>
</svg>
